<?xml version="1.0" encoding="UTF-8"?>
<!DOCTYPE svg PUBLIC "-//W3C//DTD SVG 1.1//EN" "http://www.w3.org/Graphics/SVG/1.1/DTD/svg11.dtd">
<!-- Creator: CorelDRAW 2020 (64-Bit) -->
<svg xmlns="http://www.w3.org/2000/svg" xml:space="preserve" width="31.2923mm" height="31.3022mm" version="1.1" style="shape-rendering:geometricPrecision; text-rendering:geometricPrecision; image-rendering:optimizeQuality; fill-rule:evenodd; clip-rule:evenodd"
viewBox="0 0 162.06 162.11"
 xmlns:xlink="http://www.w3.org/1999/xlink"
 xmlns:xodm="http://www.corel.com/coreldraw/odm/2003">
 <defs>
  <style type="text/css">
   <![CDATA[
    .str0 {stroke:#3E4095;stroke-width:0.91;stroke-miterlimit:22.9256}
    .fil0 {fill:none}
    .fil1 {fill:#FEFEFE}
    .fil2 {fill:#3E4095}
   ]]>
  </style>
 </defs>
 <g id="图层_x0020_1">
  <metadata id="CorelCorpID_0Corel-Layer"/>
  <line class="fil0 str0" x1="36.63" y1="3.88" x2="123.06" y2= "3.88" />
  <circle class="fil1 str0" cx="33.2" cy="3.88" r="3.43"/>
  <circle class="fil1 str0" cx="126.48" cy="3.88" r="3.43"/>
  <circle class="fil1 str0" cx="48.75" cy="3.88" r="3.43"/>
  <circle class="fil1 str0" cx="64.3" cy="3.88" r="3.43"/>
  <circle class="fil1 str0" cx="79.84" cy="3.88" r="3.43"/>
  <circle class="fil1 str0" cx="95.39" cy="3.88" r="3.43"/>
  <circle class="fil1 str0" cx="110.94" cy="3.88" r="3.43"/>
  <line class="fil0 str0" x1="37.87" y1="158.23" x2="124.31" y2= "158.23" />
  <circle class="fil2 str0" cx="34.45" cy="158.23" r="3.43"/>
  <circle class="fil2 str0" cx="127.73" cy="158.23" r="3.43"/>
  <circle class="fil2 str0" cx="53.1" cy="158.23" r="3.43"/>
  <circle class="fil2 str0" cx="71.76" cy="158.23" r="3.43"/>
  <circle class="fil2 str0" cx="109.07" cy="158.23" r="3.43"/>
  <circle class="fil2 str0" cx="90.42" cy="158.23" r="3.43"/>
  <line class="fil0 str0" x1="158.18" y1="134.31" x2="158.18" y2= "28.06" />
  <circle class="fil1 str0" transform="matrix(-2.25418E-14 0.851132 0.851132 2.25418E-14 158.177 123.593)" r="4.03"/>
  <circle class="fil1 str0" transform="matrix(-2.25418E-14 0.851132 0.851132 2.25418E-14 158.177 24.6314)" r="4.03"/>
  <circle class="fil1 str0" transform="matrix(-2.25418E-14 0.851132 0.851132 2.25418E-14 158.177 95.3182)" r="4.03"/>
  <circle class="fil1 str0" transform="matrix(-2.25418E-14 0.851132 0.851132 2.25418E-14 158.177 81.1809)" r="4.03"/>
  <circle class="fil1 str0" transform="matrix(-2.25418E-14 0.851132 0.851132 2.25418E-14 158.177 67.0435)" r="4.03"/>
  <circle class="fil1 str0" transform="matrix(-2.25418E-14 0.851132 0.851132 2.25418E-14 158.177 52.9061)" r="4.03"/>
  <circle class="fil1 str0" transform="matrix(-2.25418E-14 0.851132 0.851132 2.25418E-14 158.177 38.7688)" r="4.03"/>
  <circle class="fil1 str0" transform="matrix(-2.25418E-14 0.851132 0.851132 2.25418E-14 158.177 109.456)" r="4.03"/>
  <circle class="fil1 str0" transform="matrix(-2.25418E-14 -0.851132 0.851132 -2.25418E-14 158.177 137.731)" r="4.03"/>
  <line class="fil0 str0" x1="3.88" y1="133.39" x2="3.88" y2= "27.15" />
  <circle class="fil2 str0" transform="matrix(-2.25418E-14 0.851132 0.851132 2.25418E-14 3.88262 23.7204)" r="4.03"/>
  <circle class="fil2 str0" transform="matrix(-2.25418E-14 0.851132 0.851132 2.25418E-14 3.88262 104.506)" r="4.03"/>
  <circle class="fil2 str0" transform="matrix(-2.25418E-14 0.851132 0.851132 2.25418E-14 3.88262 88.349)" r="4.03"/>
  <circle class="fil2 str0" transform="matrix(-2.25418E-14 0.851132 0.851132 2.25418E-14 3.88262 72.1918)" r="4.03"/>
  <circle class="fil2 str0" transform="matrix(-2.25418E-14 0.851132 0.851132 2.25418E-14 3.88262 56.0347)" r="4.03"/>
  <circle class="fil2 str0" transform="matrix(-2.25418E-14 0.851132 0.851132 2.25418E-14 3.88262 39.8776)" r="4.03"/>
  <circle class="fil2 str0" transform="matrix(-2.25418E-14 0.851132 0.851132 2.25418E-14 3.88262 120.663)" r="4.03"/>
  <circle class="fil2 str0" transform="matrix(-2.25418E-14 -0.851132 0.851132 -2.25418E-14 3.88262 136.82)" r="4.03"/>
  <line class="fil0 str0" x1="135.16" y1="105.39" x2="135.16" y2= "63.29" />
  <circle class="fil2 str0" transform="matrix(-2.25418E-14 0.851132 0.851132 2.25418E-14 135.162 59.864)" r="4.03"/>
  <circle class="fil2 str0" transform="matrix(-2.25418E-14 0.851132 0.851132 2.25418E-14 135.162 102.17)" r="4.03"/>
  <circle class="fil2 str0" transform="matrix(-2.25418E-14 0.851132 0.851132 2.25418E-14 135.162 88.0672)" r="4.03"/>
  <circle class="fil2 str0" transform="matrix(-2.25418E-14 0.851132 0.851132 2.25418E-14 135.162 73.9656)" r="4.03"/>
  <line class="fil0 str0" x1="26.9" y1="105.39" x2="26.9" y2= "63.29" />
  <circle class="fil1 str0" transform="matrix(-2.25418E-14 0.851132 0.851132 2.25418E-14 26.8982 59.864)" r="4.03"/>
  <circle class="fil1 str0" transform="matrix(-2.25418E-14 0.851132 0.851132 2.25418E-14 26.8982 102.17)" r="4.03"/>
  <circle class="fil1 str0" transform="matrix(-2.25418E-14 0.851132 0.851132 2.25418E-14 26.8982 81.0167)" r="4.03"/>
  <line class="fil0 str0" x1="90.76" y1="24.79" x2="71.72" y2= "24.79" />
  <circle class="fil2 str0" cx="68.3" cy="24.79" r="3.43"/>
  <circle class="fil2 str0" cx="91.39" cy="24.79" r="3.43"/>
  <circle class="fil1 str0" transform="matrix(-2.25418E-14 0.851132 0.851132 2.25418E-14 79.8442 137.32)" r="4.03"/>
  <rect class="fil0 str0" x="48.73" y="45.7" width="62.23" height="70.71"/>
  <circle class="fil2 str0" cx="48.73" cy="45.7" r="3.43"/>
  <circle class="fil2 str0" cx="109.99" cy="45.7" r="3.43"/>
  <circle class="fil2 str0" cx="94.68" cy="45.7" r="3.43"/>
  <circle class="fil2 str0" cx="79.36" cy="45.7" r="3.43"/>
  <circle class="fil2 str0" cx="64.04" cy="45.7" r="3.43"/>
  <circle class="fil2 str0" cx="49.7" cy="116.41" r="3.43"/>
  <circle class="fil2 str0" cx="110.96" cy="116.41" r="3.43"/>
  <circle class="fil2 str0" cx="95.64" cy="116.41" r="3.43"/>
  <circle class="fil2 str0" cx="80.33" cy="116.41" r="3.43"/>
  <circle class="fil2 str0" cx="65.01" cy="116.41" r="3.43"/>
  <line class="fil0 str0" x1="79.84" y1="97.14" x2="79.84" y2= "65.54" />
  <line class="fil0 str0" x1="64.04" y1="81.34" x2="95.64" y2= "81.34" />
  <circle class="fil1 str0" transform="matrix(-2.25418E-14 0.851132 0.851132 2.25418E-14 64.0444 81.3414)" r="4.03"/>
  <circle class="fil1 str0" transform="matrix(-2.25418E-14 0.851132 0.851132 2.25418E-14 95.644 81.3414)" r="4.03"/>
  <circle class="fil1 str0" transform="matrix(-2.25418E-14 0.851132 0.851132 2.25418E-14 79.8442 81.0555)" r="4.03"/>
  <circle class="fil1 str0" transform="matrix(-2.25418E-14 0.851132 0.851132 2.25418E-14 79.8442 65.5416)" r="4.03"/>
  <circle class="fil1 str0" transform="matrix(-2.25418E-14 0.851132 0.851132 2.25418E-14 79.8442 96.57)" r="4.03"/>
 </g>
</svg>
