<?xml version="1.0" encoding="UTF-8"?>
<!DOCTYPE svg PUBLIC "-//W3C//DTD SVG 1.1//EN" "http://www.w3.org/Graphics/SVG/1.1/DTD/svg11.dtd">
<!-- Creator: CorelDRAW 2020 (64-Bit) -->
<svg xmlns="http://www.w3.org/2000/svg" xml:space="preserve" width="31.0256mm" height="31.6132mm" version="1.1" style="shape-rendering:geometricPrecision; text-rendering:geometricPrecision; image-rendering:optimizeQuality; fill-rule:evenodd; clip-rule:evenodd"
viewBox="0 0 159.89 162.92"
 xmlns:xlink="http://www.w3.org/1999/xlink"
 xmlns:xodm="http://www.corel.com/coreldraw/odm/2003">
 <defs>
  <style type="text/css">
   <![CDATA[
    .str1 {stroke:#373435;stroke-width:0.91;stroke-miterlimit:22.9256}
    .str0 {stroke:#3E4095;stroke-width:0.91;stroke-miterlimit:22.9256}
    .fil0 {fill:none}
    .fil1 {fill:#FEFEFE}
    .fil2 {fill:#3E4095}
   ]]>
  </style>
 </defs>
 <g id="图层_x0020_1">
  <metadata id="CorelCorpID_0Corel-Layer"/>
  <g id="_2576487128480">
   <line class="fil0 str0" x1="80.74" y1="92.51" x2="80.74" y2= "67.13" />
   <line class="fil0 str0" x1="68.05" y1="79.82" x2="93.43" y2= "79.82" />
   <circle class="fil1 str0" transform="matrix(-1.81914E-14 0.686867 0.686867 1.81914E-14 68.0533 79.8229)" r="4.01"/>
   <circle class="fil1 str0" transform="matrix(-1.81914E-14 0.686867 0.686867 1.81914E-14 93.4297 79.8229)" r="4.01"/>
   <circle class="fil1 str0" transform="matrix(-1.81914E-14 0.686867 0.686867 1.81914E-14 80.7415 79.5933)" r="4.01"/>
   <circle class="fil1 str0" transform="matrix(-1.81914E-14 0.686867 0.686867 1.81914E-14 80.7415 67.1347)" r="4.01"/>
   <circle class="fil1 str0" transform="matrix(-1.81914E-14 0.686867 0.686867 1.81914E-14 80.7415 92.0523)" r="4.01"/>
  </g>
  <line class="fil0 str0" x1="130.65" y1="9.86" x2="29.04" y2= "9.86" />
  <circle class="fil1 str0" cx="118.27" cy="9.86" r="2.75"/>
  <circle class="fil1 str0" cx="29.04" cy="9.86" r="2.75"/>
  <circle class="fil1 str0" cx="92.77" cy="9.86" r="2.75"/>
  <circle class="fil1 str0" cx="80.03" cy="9.86" r="2.75"/>
  <circle class="fil1 str0" cx="67.28" cy="9.86" r="2.75"/>
  <circle class="fil1 str0" cx="54.54" cy="9.86" r="2.75"/>
  <circle class="fil1 str0" cx="41.79" cy="9.86" r="2.75"/>
  <circle class="fil1 str0" cx="105.52" cy="9.86" r="2.75"/>
  <circle class="fil1 str0" cx="131.02" cy="9.86" r="2.75"/>
  <line class="fil0 str0" x1="150.03" y1="121.63" x2="150.03" y2= "39.21" />
  <circle class="fil1 str0" transform="matrix(-1.82005E-14 0.68721 0.68721 1.82005E-14 150.028 39.2131)" r="4.01"/>
  <circle class="fil1 str0" transform="matrix(-1.82005E-14 0.68721 0.68721 1.82005E-14 150.028 107.893)" r="4.01"/>
  <circle class="fil1 str0" transform="matrix(-1.82005E-14 0.68721 0.68721 1.82005E-14 150.028 94.157)" r="4.01"/>
  <circle class="fil1 str0" transform="matrix(-1.82005E-14 0.68721 0.68721 1.82005E-14 150.028 80.4207)" r="4.01"/>
  <circle class="fil1 str0" transform="matrix(-1.82005E-14 0.68721 0.68721 1.82005E-14 150.028 66.685)" r="4.01"/>
  <circle class="fil1 str0" transform="matrix(-1.82005E-14 0.68721 0.68721 1.82005E-14 150.028 52.9493)" r="4.01"/>
  <circle class="fil1 str0" transform="matrix(-1.82005E-14 0.68721 0.68721 1.82005E-14 150.028 121.63)" r="4.01"/>
  <line class="fil0 str0" x1="11.06" y1="121.63" x2="11.06" y2= "39.21" />
  <circle class="fil1 str0" transform="matrix(-1.82005E-14 0.68721 0.68721 1.82005E-14 11.056 39.2131)" r="4.01"/>
  <circle class="fil1 str0" transform="matrix(-1.82005E-14 0.68721 0.68721 1.82005E-14 11.056 80.4207)" r="4.01"/>
  <circle class="fil1 str0" transform="matrix(-1.82005E-14 0.68721 0.68721 1.82005E-14 11.056 121.63)" r="4.01"/>
  <circle class="fil1 str0" transform="matrix(-1.82005E-14 0.68721 0.68721 1.82005E-14 80.7415 149.924)" r="4.01"/>
  <line class="fil0 str0" x1="156.08" y1="3.43" x2="143.06" y2= "18.22" />
  <circle class="fil2 str0" transform="matrix(-0.422192 0.542229 0.542229 0.422192 156.076 3.43106)" r="4.01"/>
  <circle class="fil2 str0" transform="matrix(-0.422192 0.542229 0.542229 0.422192 142.649 17.8535)" r="4.01"/>
  <polygon class="fil0 str1" points="129.08,136.96 138.13,126.86 156.69,147.83 147.53,157.65 "/>
  <polygon class="fil0 str1" points="28.24,120.76 38.36,132.42 12.45,159.72 3.21,149.49 "/>
  <polygon class="fil0 str1" points="3.42,13.31 12.48,3.21 27.11,17.87 17.35,28.92 "/>
  <circle class="fil2 str0" transform="matrix(-0.422192 0.542229 0.542229 0.422192 27.1089 17.8684)" r="4.01"/>
  <circle class="fil2 str0" transform="matrix(-0.422192 0.542229 0.542229 0.422192 16.9012 28.4215)" r="4.01"/>
  <circle class="fil2 str0" transform="matrix(-0.422192 0.542229 0.542229 0.422192 3.42036 13.308)" r="4.01"/>
  <circle class="fil2 str0" transform="matrix(-0.422192 0.542229 0.542229 0.422192 12.4768 3.20644)" r="4.01"/>
  <circle class="fil2 str0" transform="matrix(-0.422192 0.542229 0.542229 0.422192 129.725 137.686)" r="4.01"/>
  <circle class="fil2 str0" transform="matrix(-0.422192 0.542229 0.542229 0.422192 138.135 126.859)" r="4.01"/>
  <circle class="fil2 str0" transform="matrix(-0.422192 0.542229 0.542229 0.422192 147.411 137.344)" r="4.01"/>
  <circle class="fil2 str0" transform="matrix(-0.422192 0.542229 0.542229 0.422192 156.687 147.828)" r="4.01"/>
  <circle class="fil2 str0" transform="matrix(-0.422192 0.542229 0.542229 0.422192 147.527 157.646)" r="4.01"/>
  <circle class="fil2 str0" transform="matrix(-0.422192 0.542229 0.542229 0.422192 138.303 147.303)" r="4.01"/>
  <circle class="fil2 str0" transform="matrix(-0.422192 0.542229 0.542229 0.422192 27.9242 121.121)" r="4.01"/>
  <circle class="fil2 str0" transform="matrix(-0.422192 0.542229 0.542229 0.422192 38.3577 132.42)" r="4.01"/>
  <circle class="fil2 str0" transform="matrix(-0.422192 0.542229 0.542229 0.422192 29.7867 141.449)" r="4.01"/>
  <circle class="fil2 str0" transform="matrix(-0.422192 0.542229 0.542229 0.422192 20.7313 150.216)" r="4.01"/>
  <circle class="fil2 str0" transform="matrix(-0.422192 0.542229 0.542229 0.422192 12.4469 159.715)" r="4.01"/>
  <circle class="fil2 str0" transform="matrix(-0.422192 0.542229 0.542229 0.422192 3.20648 149.494)" r="4.01"/>
  <circle class="fil2 str0" transform="matrix(-0.422192 0.542229 0.542229 0.422192 11.6367 139.817)" r="4.01"/>
  <circle class="fil2 str0" transform="matrix(-0.422192 0.542229 0.542229 0.422192 19.5563 130.726)" r="4.01"/>
 </g>
</svg>
