<svg xmlns="http://www.w3.org/2000/svg" viewBox="0 0 800 650" width="100%" height="100%">
  <defs>
    <linearGradient id="ringGold" x1="0.15" y1="0.18" x2="0.85" y2="0.82">
      <stop offset="0" stop-color="#c79f55"/>
      <stop offset="0.28" stop-color="#f2d98b"/>
      <stop offset="0.52" stop-color="#d5ae60"/>
      <stop offset="0.76" stop-color="#c79d4f"/>
      <stop offset="1" stop-color="#f0d07f"/>
    </linearGradient>
    <mask id="mainRingMask" maskUnits="userSpaceOnUse">
      <rect x="0" y="0" width="800" height="650" fill="black"/>
      <circle cx="400" cy="310" r="295" fill="white"/>
      <circle cx="400" cy="310" r="187" fill="black"/>
      <path d="M 96 523
               C 176 538, 270 546, 400 546
               C 532 546, 628 538, 704 523
               L 704 650 L 96 650 Z"
            fill="black"/>
    </mask>
  </defs>

  <g fill="url(#ringGold)">
    <circle cx="400" cy="310" r="295" mask="url(#mainRingMask)"/>
    <path d="M 104 521
             C 170 566, 270 595, 392 595
             C 525 595, 635 568, 697 512
             C 609 536, 505 547, 390 547
             C 277 547, 184 539, 104 521 Z"/>
  </g>
</svg>