<svg xmlns="http://www.w3.org/2000/svg" viewBox="0 0 1000 1000" width="100%" height="100%">
  <defs>
    <!-- Core Bright Background Glow -->
    <radialGradient id="coreLight" cx="50%" cy="50%" r="50%">
      <stop offset="0%" stop-color="#ffffff" stop-opacity="1"/>
      <stop offset="10%" stop-color="#fdf4ff" stop-opacity="0.9"/>
      <stop offset="30%" stop-color="#fde047" stop-opacity="0.6"/>
      <stop offset="60%" stop-color="#8b5cf6" stop-opacity="0.3"/>
      <stop offset="100%" stop-color="#020617" stop-opacity="0"/>
    </radialGradient>

    <!-- Super Glow Filter for Energy Swirls -->
    <filter id="bloom" x="-50%" y="-50%" width="200%" height="200%">
      <feGaussianBlur stdDeviation="12" result="blurMedium"/>
      <feGaussianBlur stdDeviation="25" result="blurLarge"/>
      <feMerge>
        <feMergeNode in="blurLarge"/>
        <feMergeNode in="blurMedium"/>
        <feMergeNode in="SourceGraphic"/>
      </feMerge>
    </filter>

    <filter id="starGlow" x="-50%" y="-50%" width="200%" height="200%">
      <feGaussianBlur stdDeviation="4" result="blur"/>
      <feMerge>
        <feMergeNode in="blur"/>
        <feMergeNode in="SourceGraphic"/>
      </feMerge>
    </filter>

    <!-- Gradient Paths for Dimensions -->
    <linearGradient id="energyGold" x1="0%" y1="0%" x2="100%" y2="100%">
      <stop offset="0%" stop-color="#f59e0b" stop-opacity="1"/>
      <stop offset="100%" stop-color="#dc2626" stop-opacity="0"/>
    </linearGradient>
    <linearGradient id="energyCyan" x1="100%" y1="0%" x2="0%" y2="100%">
      <stop offset="0%" stop-color="#2dd4bf" stop-opacity="1"/>
      <stop offset="100%" stop-color="#2563eb" stop-opacity="0"/>
    </linearGradient>
    <linearGradient id="energyMagenta" x1="0%" y1="100%" x2="100%" y2="0%">
      <stop offset="0%" stop-color="#d946ef" stop-opacity="1"/>
      <stop offset="100%" stop-color="#1e1b4b" stop-opacity="0"/>
    </linearGradient>
  </defs>

  <!-- Deep Space Abyss -->
  <rect width="1000" height="1000" fill="#020617" />
  
  <!-- Massive Core Glow Mapping -->
  <circle cx="500" cy="500" r="500" fill="url(#coreLight)" />

  <g transform="translate(500, 500)" filter="url(#bloom)">
    <!-- Multi-dimensional Torus/Vortex overlapping -->
    <!-- Layer 1: Golden Energy Bounds -->
    <ellipse cx="0" cy="0" rx="420" ry="110" fill="none" stroke="url(#energyGold)" stroke-width="4" transform="rotate(15)"/>
    <ellipse cx="0" cy="0" rx="420" ry="110" fill="none" stroke="url(#energyGold)" stroke-width="2" transform="rotate(75)"/>
    <ellipse cx="0" cy="0" rx="420" ry="110" fill="none" stroke="url(#energyGold)" stroke-width="5" transform="rotate(135)"/>
    
    <!-- Layer 2: Cyan Sub-dimension Flows -->
    <ellipse cx="0" cy="0" rx="360" ry="90" fill="none" stroke="url(#energyCyan)" stroke-width="6" transform="rotate(45)"/>
    <ellipse cx="0" cy="0" rx="360" ry="90" fill="none" stroke="url(#energyCyan)" stroke-width="3" transform="rotate(105)"/>
    <ellipse cx="0" cy="0" rx="360" ry="90" fill="none" stroke="url(#energyCyan)" stroke-width="2" transform="rotate(165)"/>

    <!-- Layer 3: Deep Magenta/Purple Resonance -->
    <ellipse cx="0" cy="0" rx="280" ry="140" fill="none" stroke="url(#energyMagenta)" stroke-width="7" transform="rotate(-30)"/>
    <ellipse cx="0" cy="0" rx="280" ry="140" fill="none" stroke="url(#energyMagenta)" stroke-width="4" transform="rotate(60)"/>
    <ellipse cx="0" cy="0" rx="280" ry="140" fill="none" stroke="url(#energyMagenta)" stroke-width="5" transform="rotate(150)"/>

    <!-- Organic Swirling Core Lines -->
    <path d="M 0,0 C 150,-250 350,-150 250,150 C 150,350 -150,250 0,0" fill="none" stroke="#fde047" stroke-width="4" opacity="0.9" transform="rotate(20)"/>
    <path d="M 0,0 C 150,-250 350,-150 250,150 C 150,350 -150,250 0,0" fill="none" stroke="#67e8f9" stroke-width="3" opacity="0.8" transform="rotate(140)"/>
    <path d="M 0,0 C 150,-250 350,-150 250,150 C 150,350 -150,250 0,0" fill="none" stroke="#f472b6" stroke-width="5" opacity="0.7" transform="rotate(260)"/>

    <!-- Floating Hexagram/Logic Rings -->
    <circle cx="0" cy="0" r="180" fill="none" stroke="#38bdf8" stroke-width="2" stroke-dasharray="14, 8, 4, 8" opacity="0.5"/>
    <circle cx="0" cy="0" r="240" fill="none" stroke="#fbbf24" stroke-width="1.5" stroke-dasharray="4, 16" opacity="0.6"/>
    <circle cx="0" cy="0" r="310" fill="none" stroke="#a78bfa" stroke-width="3" stroke-dasharray="30, 20, 2, 20" opacity="0.4"/>

    <!-- Center Singularity Eye -->
    <circle cx="0" cy="0" r="45" fill="#ffffff" />
    <circle cx="0" cy="0" r="25" fill="#fef08a" />
  </g>

  <!-- Emergent Structure Nodes (Particles/Stars forming order) -->
  <g filter="url(#starGlow)">
    <circle cx="500" cy="150" r="6" fill="#fde047"/>
    <circle cx="500" cy="850" r="5" fill="#fde047"/>
    <circle cx="150" cy="500" r="4" fill="#67e8f9"/>
    <circle cx="850" cy="500" r="7" fill="#67e8f9"/>
    <circle cx="250" cy="250" r="4.5" fill="#f472b6"/>
    <circle cx="750" cy="750" r="6" fill="#f472b6"/>
    <circle cx="750" cy="250" r="5" fill="#a855f7"/>
    <circle cx="250" cy="750" r="4" fill="#a855f7"/>
    <circle cx="650" cy="400" r="3" fill="#ffffff"/>
    <circle cx="350" cy="600" r="3.5" fill="#ffffff"/>
    <circle cx="400" cy="350" r="4" fill="#ffffff"/>
    <circle cx="600" cy="650" r="3" fill="#ffffff"/>
  </g>

  <!-- Scattered Dust / Cosmic Debris -->
  <g fill="#ffffff" opacity="0.6">
    <circle cx="820" cy="180" r="2"/>
    <circle cx="880" cy="380" r="1.5"/>
    <circle cx="120" cy="680" r="2.5"/>
    <circle cx="320" cy="140" r="1"/>
    <circle cx="680" cy="880" r="2"/>
    <circle cx="200" cy="200" r="1.5"/>
    <circle cx="450" cy="820" r="2"/>
    <circle cx="920" cy="650" r="1"/>
    <circle cx="80" cy="450" r="1.5"/>
  </g>
</svg>