<svg xmlns="http://www.w3.org/2000/svg" viewBox="0 0 512 512">
  <rect width="512" height="512" rx="84" fill="#07131F"/>

  <circle cx="256" cy="256" r="176" stroke="#38BDF8" stroke-width="14" fill="none" opacity="0.9"/>
  <circle cx="256" cy="256" r="132" stroke="#7DD3FC" stroke-width="8" fill="none" opacity="0.45"/>

  <path d="M184 232 C214 186, 298 182, 328 232" stroke="#F8FAFC" stroke-width="10" fill="none" stroke-linecap="round" opacity="0.9"/>
  <path d="M184 280 C214 326, 298 330, 328 280" stroke="#F8FAFC" stroke-width="10" fill="none" stroke-linecap="round" opacity="0.9"/>
  <path d="M208 214 C232 206, 276 206, 300 214" stroke="#F59E0B" stroke-width="6" fill="none" stroke-linecap="round"/>
  <path d="M208 298 C232 306, 276 306, 300 298" stroke="#38BDF8" stroke-width="6" fill="none" stroke-linecap="round"/>

  <g font-family="Inter, Arial, sans-serif" font-weight="700">
    <circle cx="256" cy="112" r="24" fill="#0F172A" stroke="#38BDF8" stroke-width="2"/>
    <text x="240" y="120" font-size="28" fill="#F8FAFC">S</text>

    <circle cx="376" cy="180" r="24" fill="#0F172A" stroke="#7DD3FC" stroke-width="2"/>
    <text x="360" y="188" font-size="28" fill="#F8FAFC">K</text>

    <circle cx="404" cy="300" r="24" fill="#0F172A" stroke="#F59E0B" stroke-width="2"/>
    <text x="388" y="308" font-size="28" fill="#F8FAFC">S</text>

    <circle cx="336" cy="404" r="24" fill="#0F172A" stroke="#38BDF8" stroke-width="2"/>
    <text x="323" y="412" font-size="28" fill="#F8FAFC">T</text>

    <circle cx="136" cy="332" r="24" fill="#0F172A" stroke="#7DD3FC" stroke-width="2"/>
    <text x="122" y="340" font-size="28" fill="#F8FAFC">U</text>
  </g>

  <circle cx="256" cy="256" r="14" fill="#F8FAFC"/>
</svg>
