<svg width="1600" height="1600" viewBox="0 0 1600 1600" xmlns="http://www.w3.org/2000/svg" role="img" aria-label="skstu logo combining river flow and Luo Shu structure">
  <defs>
    <linearGradient id="bgGrad" x1="0%" y1="0%" x2="100%" y2="100%">
      <stop offset="0%" stop-color="#0B1F3A"/>
      <stop offset="100%" stop-color="#173A6A"/>
    </linearGradient>
    <linearGradient id="goldGrad" x1="0%" y1="0%" x2="100%" y2="100%">
      <stop offset="0%" stop-color="#F5D27A"/>
      <stop offset="100%" stop-color="#C9922C"/>
    </linearGradient>
    <filter id="shadow" x="-20%" y="-20%" width="140%" height="140%">
      <feDropShadow dx="0" dy="16" stdDeviation="20" flood-color="#000000" flood-opacity="0.22"/>
    </filter>
  </defs>

  <rect x="60" y="60" width="1480" height="1480" rx="120" fill="url(#bgGrad)"/>

  <g filter="url(#shadow)">
    <path d="M390 420C512 315 635 309 713 392C777 457 768 557 678 624C618 669 524 685 452 656C380 627 321 558 330 498C340 427 401 392 470 392C542 392 590 440 590 507" fill="none" stroke="#F5D27A" stroke-width="46" stroke-linecap="round" stroke-linejoin="round"/>

    <path d="M408 440C479 407 534 400 566 430C597 459 590 507 542 548C495 589 431 593 390 558" fill="none" stroke="#FFFFFF" stroke-opacity="0.92" stroke-width="16" stroke-linecap="round" stroke-linejoin="round"/>

    <circle cx="598" cy="511" r="34" fill="#FFFFFF"/>
    <circle cx="598" cy="511" r="18" fill="#0B1F3A"/>

    <g transform="translate(760 320)">
      <rect x="0" y="0" width="220" height="220" rx="26" fill="none" stroke="url(#goldGrad)" stroke-width="24"/>
      <rect x="36" y="36" width="148" height="148" rx="18" fill="none" stroke="#FFFFFF" stroke-opacity="0.92" stroke-width="16"/>
      <line x1="110" y1="36" x2="110" y2="184" stroke="#FFFFFF" stroke-opacity="0.95" stroke-width="12"/>
      <line x1="36" y1="110" x2="184" y2="110" stroke="#FFFFFF" stroke-opacity="0.95" stroke-width="12"/>
      <line x1="36" y1="36" x2="184" y2="184" stroke="#F5D27A" stroke-width="14" stroke-linecap="round"/>
    </g>

    <g transform="translate(840 610)">
      <rect x="0" y="0" width="320" height="320" rx="44" fill="none" stroke="#FFFFFF" stroke-opacity="0.12" stroke-width="18"/>
      <rect x="56" y="56" width="208" height="208" rx="24" fill="none" stroke="#FFFFFF" stroke-opacity="0.24" stroke-width="16"/>
      <line x1="56" y1="160" x2="264" y2="160" stroke="#F5D27A" stroke-width="14"/>
      <line x1="160" y1="56" x2="160" y2="264" stroke="#F5D27A" stroke-width="14"/>
      <line x1="56" y1="56" x2="264" y2="264" stroke="#FFFFFF" stroke-opacity="0.7" stroke-width="10"/>
    </g>
  </g>

  <text x="800" y="1220" text-anchor="middle" font-family="'Segoe UI', 'PingFang SC', 'Microsoft YaHei', Arial, sans-serif" font-size="220" font-weight="700" letter-spacing="12" fill="#FFFFFF">skstu</text>
  <text x="800" y="1320" text-anchor="middle" font-family="'Segoe UI', 'PingFang SC', 'Microsoft YaHei', Arial, sans-serif" font-size="58" font-weight="500" letter-spacing="10" fill="#E7C46E">AI • 河图 • 洛书</text>
</svg>
