<svg xmlns="http://www.w3.org/2000/svg" viewBox="0 0 500 500">
  <rect width="500" height="500" rx="36" fill="#07131F"/>

  <circle cx="250" cy="250" r="176" fill="none" stroke="#1B4C64" stroke-width="1.2" opacity="0.8"/>
  <circle cx="250" cy="250" r="138" fill="none" stroke="#2A6F8D" stroke-width="0.9" opacity="0.28"/>

  <path d="M250 120 C326 120 378 172 378 250 C378 328 326 380 250 380 C174 380 122 328 122 250 C122 196 148 154 182 132" fill="none" stroke="url(#spiralGrad)" stroke-width="2.8" stroke-linecap="round"/>

  <g transform="translate(250 250)">
    <circle cx="0" cy="0" r="48" fill="#0C1726" stroke="#D8B56B" stroke-width="1"/>
    <text x="0" y="16" text-anchor="middle" font-family="'Inter', 'Segoe UI', 'Arial', 'sans-serif'" font-size="48" font-weight="700" fill="#FFD46A">S</text>
  </g>

  <g transform="translate(250 116)">
    <circle cx="0" cy="0" r="18" fill="#0C1726" stroke="#4FD1C5" stroke-width="1"/>
    <text x="0" y="8" text-anchor="middle" font-family="'Inter', 'Segoe UI', 'Arial', 'sans-serif'" font-size="22" font-weight="700" fill="#4FD1C5">S</text>
  </g>

  <g transform="translate(382 188)">
    <circle cx="0" cy="0" r="18" fill="#0C1726" stroke="#6EA8FF" stroke-width="1"/>
    <text x="0" y="8" text-anchor="middle" font-family="'Inter', 'Segoe UI', 'Arial', 'sans-serif'" font-size="22" font-weight="700" fill="#6EA8FF">K</text>
  </g>

  <g transform="translate(376 334)">
    <circle cx="0" cy="0" r="18" fill="#0C1726" stroke="#E57B5B" stroke-width="1"/>
    <text x="0" y="8" text-anchor="middle" font-family="'Inter', 'Segoe UI', 'Arial', 'sans-serif'" font-size="22" font-weight="700" fill="#E57B5B">T</text>
  </g>

  <g transform="translate(124 300)">
    <circle cx="0" cy="0" r="18" fill="#0C1726" stroke="#F4C542" stroke-width="1"/>
    <text x="0" y="8" text-anchor="middle" font-family="'Inter', 'Segoe UI', 'Arial', 'sans-serif'" font-size="22" font-weight="700" fill="#F4C542">U</text>
  </g>

  <circle cx="250" cy="250" r="4" fill="#FFD46A"/>
  <circle cx="250" cy="116" r="2.2" fill="#4FD1C5" opacity="0.9"/>
  <circle cx="382" cy="188" r="2.2" fill="#6EA8FF" opacity="0.9"/>
  <circle cx="376" cy="334" r="2.2" fill="#E57B5B" opacity="0.9"/>
  <circle cx="124" cy="300" r="2.2" fill="#F4C542" opacity="0.9"/>

  <path d="M250 250 L250 116" stroke="#4FD1C5" stroke-width="1" stroke-linecap="round" opacity="0.6"/>
  <path d="M250 250 L382 188" stroke="#6EA8FF" stroke-width="1" stroke-linecap="round" opacity="0.6"/>
  <path d="M250 250 L376 334" stroke="#E57B5B" stroke-width="1" stroke-linecap="round" opacity="0.6"/>
  <path d="M250 250 L124 300" stroke="#F4C542" stroke-width="1" stroke-linecap="round" opacity="0.6"/>

  <defs>
    <linearGradient id="spiralGrad" x1="0%" y1="0%" x2="100%" y2="100%">
      <stop offset="0%" stop-color="#FFD46A" stop-opacity="0.95"/>
      <stop offset="50%" stop-color="#4FD1C5" stop-opacity="0.95"/>
      <stop offset="100%" stop-color="#6EA8FF" stop-opacity="0.95"/>
    </linearGradient>
  </defs>
</svg>